PathFileType	4	(X/Y/Z)	 s07c0402.trc
DataRate	CameraRate	NumFrames	NumMarkers	Units	OrigDataRate	OrigDataStartFrame	OrigNumFrames
200	200	4	48	mm	200	1501	2000
Frame#	Time	racr			lacr			c7			jug			rlel			rdr			llel			ldr			s2			lic			ric			lasi			rasi			rpsi			lpsi			rgt			lgt			rth1			rth2			rth3			rth4			rlfc			rmfc			rsh1			rsh2			rsh3			rsh4			rlmal			rcal			rtoe			rmt5			lth1			lth2			lth4			lth3			llfc			lmfc			lsh1			lsh2			lsh3			lsh4			llmal			lcal			ltoe			lmt5			SBIKE			LBIKE			RBIKE			
		X1	Y1	Z1	X2	Y2	Z2	X3	Y3	Z3	X4	Y4	Z4	X5	Y5	Z5	X6	Y6	Z6	X7	Y7	Z7	X8	Y8	Z8	X9	Y9	Z9	X10	Y10	Z10	X11	Y11	Z11	X12	Y12	Z12	X13	Y13	Z13	X14	Y14	Z14	X15	Y15	Z15	X16	Y16	Z16	X17	Y17	Z17	X18	Y18	Z18	X19	Y19	Z19	X20	Y20	Z20	X21	Y21	Z21	X22	Y22	Z22	X23	Y23	Z23	X24	Y24	Z24	X25	Y25	Z25	X26	Y26	Z26	X27	Y27	Z27	X28	Y28	Z28	X29	Y29	Z29	X30	Y30	Z30	X31	Y31	Z31	X32	Y32	Z32	X33	Y33	Z33	X34	Y34	Z34	X35	Y35	Z35	X36	Y36	Z36	X37	Y37	Z37	X38	Y38	Z38	X39	Y39	Z39	X40	Y40	Z40	X41	Y41	Z41	X42	Y42	Z42	X43	Y43	Z43	X44	Y44	Z44	X45	Y45	Z45	X46	Y46	Z46	X47	Y47	Z47	X48	Y48	Z48	
1501	7.5050	809.474721	1370.614709	-6.748003	857.921253	1369.154942	-329.448882	842.397372	1422.244612	-173.005745	779.824176	1283.619124	-184.767311	518.316543	1150.172473	39.330931	693.973561	940.516994	-42.874460	600.566935	1187.949232	-505.653745	700.906740	932.497531	-432.514824	248.369041	1301.353518	-276.268921	433.901544	1295.789561	-397.441040	394.750579	1313.444334	-107.233527	435.612701	1214.088540	-368.788770	407.279980	1259.355024	-122.324587	277.599901	1337.068017	-225.439104	306.452626	1333.486087	-331.701851	321.828954	1207.205692	-67.726795	327.684387	1158.196370	-423.805821	431.626087	1097.507449	-52.691019	503.401820	1045.364481	-57.139688	540.794335	969.278427	-49.272533	538.468644	1067.915184	-67.035681	611.170734	846.500121	-75.617909	604.313602	834.277882	-182.981818	504.913299	751.876786	-55.762034	451.699030	683.945115	-74.729149	371.295969	647.679587	-71.779798	462.844040	674.297104	-113.965194	256.984188	564.220400	-74.411425	174.411751	556.395798	-102.431387	429.776098	418.246980	-118.542722	345.075893	417.399918	-46.902774	331.297011	1037.656971	-426.533035	356.896422	954.149716	-420.236287	391.062863	955.476575	-408.787968	337.099955	867.084022	-414.993507	325.768228	694.602152	-385.828664	304.693094	684.029548	-294.038327	226.598584	585.846664	-409.353494	197.388701	511.757200	-390.718715	119.382914	455.339559	-397.803184	197.091390	511.077047	-345.390101	27.081772	355.875998	-396.337541	-49.669077	362.249034	-361.316368	166.664628	169.384669	-356.047630	88.695855	199.917683	-418.543050	-258.919997	972.369946	-232.289482	-75.669106	83.871545	-437.996651	-82.486746	79.666451	-40.431922	
1502	7.5100	810.487406	1366.066024	-6.161326	857.015659	1368.929355	-328.837700	842.404751	1420.641278	-172.166949	778.991238	1282.463564	-184.817193	516.894574	1149.096632	39.402186	693.605557	940.519720	-43.049687	599.876985	1187.734885	-505.127676	700.574092	932.125927	-432.050715	248.096488	1303.688812	-276.689620	434.154147	1299.055813	-396.865680	393.836548	1313.696252	-106.773808	435.799934	1216.839788	-368.795828	406.062299	1259.886427	-122.506688	277.350819	1339.092201	-225.299962	306.481755	1336.123062	-331.379280	320.013540	1208.068475	-68.591547	329.038187	1160.275827	-424.935667	428.346130	1096.172628	-53.115669	498.283149	1043.303969	-55.913522	535.303955	966.111151	-49.933256	535.714235	1065.120187	-65.588908	603.587212	842.210332	-75.960302	597.164448	830.006428	-183.032099	498.171145	745.601032	-56.553184	446.983415	676.470226	-75.484778	367.300753	638.359465	-73.166979	458.655872	666.749562	-114.600459	255.490608	552.944076	-75.906262	174.173639	540.655130	-105.172078	435.747884	414.214540	-116.939909	351.136314	410.479526	-45.585378	335.738158	1039.152444	-426.612767	363.544078	956.372309	-419.532285	397.436623	958.748017	-407.439067	346.231318	869.379140	-415.525565	337.610299	695.337148	-385.616711	316.152693	684.822941	-294.230611	234.821932	589.386333	-409.477326	201.927255	516.193112	-390.467108	122.463304	463.180171	-398.376565	200.321406	515.343415	-344.884574	26.130503	366.244264	-397.252541	-50.786848	374.446553	-361.543061	159.446396	174.979936	-355.782329	82.785324	207.737801	-417.876854	-258.873348	972.404405	-232.117318	-75.651696	83.983664	-438.019241	-82.460085	79.661206	-40.425358	
1503	7.5150	811.473270	1361.490318	-5.767844	855.950549	1369.062560	-328.511691	842.322872	1419.257474	-171.375218	778.278915	1281.439809	-184.938725	515.599906	1147.850032	39.639608	693.200315	940.422817	-43.296006	599.131412	1187.578021	-504.619743	700.251737	931.929564	-431.846803	247.732182	1305.763958	-276.907326	434.468211	1302.110907	-396.395711	392.888375	1313.710682	-106.155370	435.998620	1219.388318	-368.631870	404.098985	1259.960851	-122.671850	277.033022	1340.809229	-225.321001	306.517185	1338.247318	-331.042610	318.103660	1208.581746	-69.346621	330.572557	1162.271198	-426.216520	424.660792	1094.518511	-53.066083	493.774692	1040.189964	-56.073195	528.935789	962.471408	-50.360996	523.198625	1060.428351	-71.511307	595.860713	837.643138	-76.256565	589.576180	825.625121	-183.135325	491.325226	738.769943	-57.294794	442.206655	668.113986	-76.563225	363.734903	628.149338	-74.691805	454.781638	658.955288	-114.902695	255.192418	540.367273	-78.333974	174.946743	525.430014	-107.868614	441.362824	409.047836	-115.542815	355.499135	402.418850	-45.886345	340.518382	1040.606843	-426.625373	370.623082	958.714975	-418.582834	404.089944	962.082948	-405.644254	355.823659	871.109546	-414.975003	349.206374	696.503873	-385.627616	327.786815	686.139117	-294.216595	243.109422	593.442423	-409.509514	206.723929	520.805162	-390.300133	126.127318	471.362083	-398.975502	204.143779	519.861866	-344.569173	26.325594	376.489636	-398.277445	-50.603620	387.297188	-361.887001	152.742642	180.657001	-355.338559	77.484351	215.874333	-417.246372	-258.746294	972.505140	-231.903521	-75.662476	84.076829	-437.992011	-82.488217	79.705152	-40.373576	
1504	7.5200	812.351540	1357.036305	-5.752649	854.836384	1369.541389	-328.122250	842.159267	1418.042173	-170.671140	777.628458	1280.618037	-185.367066	514.474660	1146.711430	40.016479	692.859242	940.282679	-43.562996	598.450326	1187.482702	-504.296246	699.877605	931.633765	-431.494651	247.391954	1307.486580	-277.235643	434.668477	1304.879653	-395.782148	391.849312	1313.495399	-105.431663	436.238400	1221.727247	-368.509271	402.841336	1260.109721	-122.720348	276.662842	1342.255404	-225.270511	306.624565	1340.191252	-330.675322	316.051011	1208.645373	-70.150218	332.260870	1164.176039	-427.429387	421.160155	1092.349355	-53.674854	489.177672	1036.871732	-56.281122	522.619041	958.359125	-50.802851	523.349928	1056.327634	-69.139782	588.100473	832.743644	-76.672846	582.355899	820.856576	-183.234819	484.848069	731.477070	-58.123449	438.435459	659.090071	-77.585371	360.376406	617.310985	-76.924452	451.057073	650.597194	-115.986489	255.542385	527.319250	-80.865423	175.940699	510.585766	-110.090253	446.394640	402.750673	-114.718480	360.208783	394.114456	-45.851198	345.542420	1042.055690	-426.655645	377.986613	961.127616	-417.534502	410.953272	965.482092	-403.660041	365.780730	872.832094	-414.013632	360.495449	698.256123	-385.592166	339.377562	687.645111	-294.046105	251.478520	597.443744	-409.388948	211.637254	525.568664	-390.211633	130.343517	479.377278	-399.438822	208.484662	524.615257	-344.454385	27.787516	386.467470	-399.298171	-49.297312	400.180569	-362.381392	146.713175	186.344524	-355.152224	73.085144	223.998132	-416.972680	-258.505055	972.682368	-231.656338	-75.663637	84.195151	-437.973405	-82.466082	79.726369	-40.355854	
